<?xml version="1.0" encoding="utf-8"?>
<!-- Generator: Adobe Illustrator 19.1.1, SVG Export Plug-In . SVG Version: 6.00 Build 0)  -->
<svg version="1.1" xmlns="http://www.w3.org/2000/svg" xmlns:xlink="http://www.w3.org/1999/xlink" x="0px" y="0px"
	 viewBox="0 0 30 30" style="enable-background:new 0 0 30 30;" xml:space="preserve">
<style type="text/css">
	.st0{display:none;}
	.st1{display:inline;}
	.st2{fill:none;stroke:#231F20;stroke-miterlimit:10;}
	.st3{fill:none;stroke:#00618C;stroke-linecap:round;stroke-linejoin:round;stroke-miterlimit:10;}
	.st4{fill:#24C0DE;stroke:#00618C;stroke-linecap:round;stroke-linejoin:round;stroke-miterlimit:10;}
	.st5{fill:#FFFFFF;stroke:#00618C;stroke-linecap:round;stroke-linejoin:round;stroke-miterlimit:10;}
	.st6{opacity:0.5;fill:#24C0DE;}
	.st7{fill:none;stroke:#00618C;stroke-linecap:round;stroke-linejoin:round;stroke-miterlimit:10;stroke-dasharray:2;}
	.st8{fill:none;stroke:#00618C;stroke-linejoin:round;stroke-miterlimit:10;}
	.st9{display:inline;fill:none;stroke:#000000;stroke-miterlimit:10;}
	.st10{display:inline;fill:none;stroke:#000000;stroke-linecap:round;stroke-linejoin:round;stroke-miterlimit:10;}
	.st11{display:inline;opacity:0.4;fill:#FBB040;}
	.st12{display:inline;fill:none;stroke:#231F20;stroke-miterlimit:10;}
</style>
<g id="Layer_1" class="st0">
	<g class="st1">
		<rect x="0" y="0" class="st2" width="30" height="30"/>
		<line class="st2" x1="0" y1="28.2" x2="30" y2="28.2"/>
		<line class="st2" x1="0" y1="26.5" x2="30" y2="26.5"/>
		<line class="st2" x1="0" y1="24.7" x2="30" y2="24.7"/>
		<line class="st2" x1="0" y1="22.9" x2="30" y2="22.9"/>
		<line class="st2" x1="0" y1="21.2" x2="30" y2="21.2"/>
		<line class="st2" x1="0" y1="19.4" x2="30" y2="19.4"/>
		<line class="st2" x1="0" y1="17.6" x2="30" y2="17.6"/>
		<line class="st2" x1="0" y1="15.9" x2="30" y2="15.9"/>
		<line class="st2" x1="0" y1="14.1" x2="30" y2="14.1"/>
		<line class="st2" x1="0" y1="12.4" x2="30" y2="12.4"/>
		<line class="st2" x1="0" y1="10.6" x2="30" y2="10.6"/>
		<line class="st2" x1="0" y1="8.8" x2="30" y2="8.8"/>
		<line class="st2" x1="0" y1="7.1" x2="30" y2="7.1"/>
		<line class="st2" x1="0" y1="5.3" x2="30" y2="5.3"/>
		<line class="st2" x1="0" y1="3.5" x2="30" y2="3.5"/>
		<line class="st2" x1="0" y1="1.8" x2="30" y2="1.8"/>
		<line class="st2" x1="28.2" y1="0" x2="28.2" y2="30"/>
		<line class="st2" x1="26.5" y1="0" x2="26.5" y2="30"/>
		<line class="st2" x1="24.7" y1="0" x2="24.7" y2="30"/>
		<line class="st2" x1="22.9" y1="0" x2="22.9" y2="30"/>
		<line class="st2" x1="21.2" y1="0" x2="21.2" y2="30"/>
		<line class="st2" x1="19.4" y1="0" x2="19.4" y2="30"/>
		<line class="st2" x1="17.6" y1="0" x2="17.6" y2="30"/>
		<line class="st2" x1="15.9" y1="0" x2="15.9" y2="30"/>
		<line class="st2" x1="14.1" y1="0" x2="14.1" y2="30"/>
		<line class="st2" x1="12.4" y1="0" x2="12.4" y2="30"/>
		<line class="st2" x1="10.6" y1="0" x2="10.6" y2="30"/>
		<line class="st2" x1="8.8" y1="0" x2="8.8" y2="30"/>
		<line class="st2" x1="7.1" y1="0" x2="7.1" y2="30"/>
		<line class="st2" x1="5.3" y1="0" x2="5.3" y2="30"/>
		<line class="st2" x1="3.5" y1="0" x2="3.5" y2="30"/>
		<line class="st2" x1="1.8" y1="0" x2="1.8" y2="30"/>
	</g>
</g>
<g id="Layer_2">
	<polygon class="st4" points="21.2,14.1 14.1,28.2 28.2,28.2 21.2,14.1 14.1,28.2 28.2,28.2 	"/>
	<line class="st3" x1="15" y1="8.8" x2="15" y2="1.8"/>
	<polygon class="st4" points="21.2,5.3 18.1,5.3 15,5.3 15,1.8 18.1,1.8 21.2,1.8 19.4,3.5 	"/>
	<polygon class="st5" points="15,8.8 5.8,28.2 24.2,28.2 15,8.8 5.8,28.2 24.2,28.2 	"/>
	<polygon class="st4" points="7.1,15.9 1.8,28.2 12.4,28.2 7.1,15.9 1.8,28.2 12.4,28.2 	"/>
</g>
<g id="Layer_3">
</g>
<g id="Desorden" class="st0">
</g>
<g id="Layer_5" class="st0">
	<rect x="-5" y="-5.8" class="st12" width="40.7" height="40.7"/>
</g>
</svg>
