<?xml version="1.0" encoding="utf-8"?>
<!-- Generator: Adobe Illustrator 19.1.1, SVG Export Plug-In . SVG Version: 6.00 Build 0)  -->
<svg version="1.1" xmlns="http://www.w3.org/2000/svg" xmlns:xlink="http://www.w3.org/1999/xlink" x="0px" y="0px"
	 viewBox="0 0 30 30" style="enable-background:new 0 0 30 30;" xml:space="preserve">
<style type="text/css">
	.st0{display:none;}
	.st1{display:inline;}
	.st2{fill:none;stroke:#231F20;stroke-miterlimit:10;}
	.st3{fill:none;stroke:#00618C;stroke-linecap:round;stroke-linejoin:round;stroke-miterlimit:10;}
	.st4{fill:#24C0DE;stroke:#00618C;stroke-linecap:round;stroke-linejoin:round;stroke-miterlimit:10;}
	.st5{fill:#FFFFFF;stroke:#00618C;stroke-linecap:round;stroke-linejoin:round;stroke-miterlimit:10;}
	.st6{opacity:0.5;fill:#24C0DE;}
	.st7{fill:none;stroke:#00618C;stroke-linecap:round;stroke-linejoin:round;stroke-miterlimit:10;stroke-dasharray:2;}
	.st8{fill:none;stroke:#00618C;stroke-linejoin:round;stroke-miterlimit:10;}
	.st9{display:inline;fill:none;stroke:#000000;stroke-miterlimit:10;}
	.st10{display:inline;fill:none;stroke:#000000;stroke-linecap:round;stroke-linejoin:round;stroke-miterlimit:10;}
	.st11{display:inline;opacity:0.4;fill:#FBB040;}
	.st12{display:inline;fill:none;stroke:#231F20;stroke-miterlimit:10;}
</style>
<g id="Layer_1" class="st0">
	<g class="st1">
		<rect x="0" y="0" class="st2" width="30" height="30"/>
		<line class="st2" x1="0" y1="28.2" x2="30" y2="28.2"/>
		<line class="st2" x1="0" y1="26.5" x2="30" y2="26.5"/>
		<line class="st2" x1="0" y1="24.7" x2="30" y2="24.7"/>
		<line class="st2" x1="0" y1="22.9" x2="30" y2="22.9"/>
		<line class="st2" x1="0" y1="21.2" x2="30" y2="21.2"/>
		<line class="st2" x1="0" y1="19.4" x2="30" y2="19.4"/>
		<line class="st2" x1="0" y1="17.6" x2="30" y2="17.6"/>
		<line class="st2" x1="0" y1="15.9" x2="30" y2="15.9"/>
		<line class="st2" x1="0" y1="14.1" x2="30" y2="14.1"/>
		<line class="st2" x1="0" y1="12.4" x2="30" y2="12.4"/>
		<line class="st2" x1="0" y1="10.6" x2="30" y2="10.6"/>
		<line class="st2" x1="0" y1="8.8" x2="30" y2="8.8"/>
		<line class="st2" x1="0" y1="7.1" x2="30" y2="7.1"/>
		<line class="st2" x1="0" y1="5.3" x2="30" y2="5.3"/>
		<line class="st2" x1="0" y1="3.5" x2="30" y2="3.5"/>
		<line class="st2" x1="0" y1="1.8" x2="30" y2="1.8"/>
		<line class="st2" x1="28.2" y1="0" x2="28.2" y2="30"/>
		<line class="st2" x1="26.5" y1="0" x2="26.5" y2="30"/>
		<line class="st2" x1="24.7" y1="0" x2="24.7" y2="30"/>
		<line class="st2" x1="22.9" y1="0" x2="22.9" y2="30"/>
		<line class="st2" x1="21.2" y1="0" x2="21.2" y2="30"/>
		<line class="st2" x1="19.4" y1="0" x2="19.4" y2="30"/>
		<line class="st2" x1="17.6" y1="0" x2="17.6" y2="30"/>
		<line class="st2" x1="15.9" y1="0" x2="15.9" y2="30"/>
		<line class="st2" x1="14.1" y1="0" x2="14.1" y2="30"/>
		<line class="st2" x1="12.4" y1="0" x2="12.4" y2="30"/>
		<line class="st2" x1="10.6" y1="0" x2="10.6" y2="30"/>
		<line class="st2" x1="8.8" y1="0" x2="8.8" y2="30"/>
		<line class="st2" x1="7.1" y1="0" x2="7.1" y2="30"/>
		<line class="st2" x1="5.3" y1="0" x2="5.3" y2="30"/>
		<line class="st2" x1="3.5" y1="0" x2="3.5" y2="30"/>
		<line class="st2" x1="1.8" y1="0" x2="1.8" y2="30"/>
	</g>
</g>
<g id="Layer_2">
	<path class="st3" d="M25.3,6.5c0.1-0.8-0.4-1.5-1-1.6c-0.7-0.1-1.3,0.4-1.4,1.2l-0.8,7.5c-0.4-0.2-0.9-0.3-1.5-0.4l0.6-8.7
		c0.1-0.8-0.4-1.5-1.1-1.5s-1.3,0.5-1.3,1.3l-0.6,8.6c-0.2,0-0.5,0-0.7,0c-0.2,0-0.5,0-0.7,0V3c0-0.7-0.6-1.2-1.2-1.2
		S14.3,2.3,14.3,3v10.1L13,13.6l-0.6-9.3C12.3,3.5,11.7,2.9,11,3c-0.7,0.1-1.2,0.8-1.1,1.5c0,0,0.6,11.8,0.6,12.1
		c0,0.4-3.9-1.7-3.9-1.7c-0.6-0.3-1.3-0.4-1.7,0.2c-0.4,0.5-0.4,1.3,0.2,1.7c0,0,6.5,6.7,6.5,6.8c0.6,0.8,1.8,2.1,1.8,2.5V28
		c0,0.1,0.1,0.3,0.3,0.3h7.6c0.1,0,0.3-0.1,0.3-0.3v-1.8c0-0.5,0.2-1,0.5-1.3c2.4-2.6,2.4-7.1,2.4-8.2C24.4,16.5,25.3,6.5,25.3,6.5z
		"/>
	<path class="st4" d="M16.7,17c0.3-0.2,0.6-0.4,0.8-0.5c1.2-0.5,2.6,0.2,3,1.5c0.2,0.8,0,1.6-0.4,2.4c-0.5,0.9-1.3,1.7-2.1,2.3
		c-0.4,0.3-0.8,0.5-1.1,0.7c-0.1,0-0.2,0-0.2,0c-1.2-0.7-2.3-1.5-3.1-2.7c-0.4-0.6-0.7-1.3-0.7-2c0-1.1,0.7-2.1,1.7-2.3
		C15.4,16.1,16.1,16.3,16.7,17C16.7,16.9,16.7,17,16.7,17z"/>
</g>
<g id="Layer_3">
</g>
<g id="Desorden" class="st0">
</g>
<g id="Layer_5" class="st0">
	<rect x="-5" y="-5.7" class="st12" width="40.7" height="40.7"/>
</g>
</svg>
