<?xml version="1.0" encoding="utf-8"?>
<!-- Generator: Adobe Illustrator 19.1.1, SVG Export Plug-In . SVG Version: 6.00 Build 0)  -->
<svg version="1.1" xmlns="http://www.w3.org/2000/svg" xmlns:xlink="http://www.w3.org/1999/xlink" x="0px" y="0px"
	 viewBox="0 0 30 30" style="enable-background:new 0 0 30 30;" xml:space="preserve">
<style type="text/css">
	.st0{display:none;}
	.st1{display:inline;}
	.st2{fill:none;stroke:#231F20;stroke-miterlimit:10;}
	.st3{fill:none;stroke:#00618C;stroke-linecap:round;stroke-linejoin:round;stroke-miterlimit:10;}
	.st4{fill:#24C0DE;stroke:#00618C;stroke-linecap:round;stroke-linejoin:round;stroke-miterlimit:10;}
	.st5{fill:#FFFFFF;stroke:#00618C;stroke-linecap:round;stroke-linejoin:round;stroke-miterlimit:10;}
	.st6{opacity:0.5;fill:#24C0DE;}
	.st7{fill:none;stroke:#00618C;stroke-linecap:round;stroke-linejoin:round;stroke-miterlimit:10;stroke-dasharray:2;}
	.st8{fill:none;stroke:#00618C;stroke-linejoin:round;stroke-miterlimit:10;}
	.st9{display:inline;fill:none;stroke:#000000;stroke-miterlimit:10;}
	.st10{display:inline;fill:none;stroke:#000000;stroke-linecap:round;stroke-linejoin:round;stroke-miterlimit:10;}
	.st11{display:inline;opacity:0.4;fill:#FBB040;}
	.st12{display:inline;fill:none;stroke:#231F20;stroke-miterlimit:10;}
</style>
<g id="Layer_1" class="st0">
	<g class="st1">
		<rect x="0" y="0" class="st2" width="30" height="30"/>
		<line class="st2" x1="0" y1="28.2" x2="30" y2="28.2"/>
		<line class="st2" x1="0" y1="26.5" x2="30" y2="26.5"/>
		<line class="st2" x1="0" y1="24.7" x2="30" y2="24.7"/>
		<line class="st2" x1="0" y1="22.9" x2="30" y2="22.9"/>
		<line class="st2" x1="0" y1="21.2" x2="30" y2="21.2"/>
		<line class="st2" x1="0" y1="19.4" x2="30" y2="19.4"/>
		<line class="st2" x1="0" y1="17.6" x2="30" y2="17.6"/>
		<line class="st2" x1="0" y1="15.9" x2="30" y2="15.9"/>
		<line class="st2" x1="0" y1="14.1" x2="30" y2="14.1"/>
		<line class="st2" x1="0" y1="12.4" x2="30" y2="12.4"/>
		<line class="st2" x1="0" y1="10.6" x2="30" y2="10.6"/>
		<line class="st2" x1="0" y1="8.8" x2="30" y2="8.8"/>
		<line class="st2" x1="0" y1="7.1" x2="30" y2="7.1"/>
		<line class="st2" x1="0" y1="5.3" x2="30" y2="5.3"/>
		<line class="st2" x1="0" y1="3.5" x2="30" y2="3.5"/>
		<line class="st2" x1="0" y1="1.8" x2="30" y2="1.8"/>
		<line class="st2" x1="28.2" y1="0" x2="28.2" y2="30"/>
		<line class="st2" x1="26.5" y1="0" x2="26.5" y2="30"/>
		<line class="st2" x1="24.7" y1="0" x2="24.7" y2="30"/>
		<line class="st2" x1="22.9" y1="0" x2="22.9" y2="30"/>
		<line class="st2" x1="21.2" y1="0" x2="21.2" y2="30"/>
		<line class="st2" x1="19.4" y1="0" x2="19.4" y2="30"/>
		<line class="st2" x1="17.6" y1="0" x2="17.6" y2="30"/>
		<line class="st2" x1="15.9" y1="0" x2="15.9" y2="30"/>
		<line class="st2" x1="14.1" y1="0" x2="14.1" y2="30"/>
		<line class="st2" x1="12.4" y1="0" x2="12.4" y2="30"/>
		<line class="st2" x1="10.6" y1="0" x2="10.6" y2="30"/>
		<line class="st2" x1="8.8" y1="0" x2="8.8" y2="30"/>
		<line class="st2" x1="7.1" y1="0" x2="7.1" y2="30"/>
		<line class="st2" x1="5.3" y1="0" x2="5.3" y2="30"/>
		<line class="st2" x1="3.5" y1="0" x2="3.5" y2="30"/>
		<line class="st2" x1="1.8" y1="0" x2="1.8" y2="30"/>
	</g>
</g>
<g id="Layer_2">
	<polygon class="st3" points="22.9,28.2 7.1,28.2 8.8,12.4 21.2,12.4 	"/>
	<path class="st4" d="M17.6,5.6V4.4c0-1.5-1.2-2.6-2.6-2.6S12.4,3,12.4,4.4l0,1.2"/>
	<rect x="7.1" y="10.6" class="st4" width="15.9" height="1.8"/>
	<path class="st3" d="M21.2,10.6H8.8v0c0-2.9,2.4-5.3,5.3-5.3h1.8C18.8,5.3,21.2,7.7,21.2,10.6L21.2,10.6z"/>
	<polygon class="st4" points="7.3,26.5 22.5,23.8 22.2,21.2 7.5,23.8 	"/>
	<polygon class="st4" points="8,19.4 21.7,16.8 21.4,14.2 8.3,16.7 	"/>
	<line class="st3" x1="1.8" y1="28.2" x2="28.2" y2="28.2"/>
	<path class="st6" d="M15,8.4l15,7.5l0-15.8L15,7.5c0,0-0.5,0.1-0.5,0.5S15,8.4,15,8.4z"/>
	<circle class="st3" cx="15" cy="7.9" r="0.9"/>
	<line class="st3" x1="15" y1="8.8" x2="15" y2="10.6"/>
</g>
<g id="Layer_3">
</g>
<g id="Desorden" class="st0">
</g>
<g id="Layer_5" class="st0">
	<rect x="-6.3" y="-6.3" class="st12" width="42.3" height="42.3"/>
</g>
</svg>
